<svg width="97" height="97" viewBox="0 0 97 97" fill="none" xmlns="http://www.w3.org/2000/svg">
<path d="M75 2.5H22C11.2304 2.5 2.5 11.2305 2.5 22V75C2.5 85.7696 11.2305 94.5 22 94.5H75C85.7696 94.5 94.5 85.7696 94.5 75V22C94.5 11.2304 85.7696 2.5 75 2.5Z" fill="#DAF1FC" stroke="black" stroke-width="5"/>
<path d="M19 72.5V20.5C21.8 20.1 23.1667 20.6667 23.5 21L49 49C49.1667 56.5 49.4 71.9 49 73.5C48.6 75.1 46.8333 74.1667 46 73.5L35.5 49H33.5L24 72.5C22.4 74.9 20 73.5 19 72.5Z" fill="#CC3363" stroke="#CC3363"/>
<path d="M79.2209 24.8834L79.2209 76.8834C76.4209 77.2834 75.0542 76.7168 74.7209 76.3834L49.2209 48.3834C49.0542 40.8834 48.8209 25.4834 49.2209 23.8834C49.6209 22.2834 51.3875 23.2168 52.2209 23.8834L62.7209 48.3834L64.7209 48.3834L74.2209 24.8834C75.8209 22.4834 78.2209 23.8834 79.2209 24.8834Z" fill="#CC3363" stroke="#CC3363"/>
</svg>
