<svg width="267" height="267" viewBox="0 0 267 267" fill="none" xmlns="http://www.w3.org/2000/svg">
<path d="M245 2.5H22C11.2304 2.5 2.5 11.2304 2.5 22V245C2.5 255.77 11.2305 264.5 22 264.5H245C255.77 264.5 264.5 255.77 264.5 245V22C264.5 11.2304 255.77 2.5 245 2.5Z" fill="#DAF1FC" stroke="black" stroke-width="5"/>
<path d="M46.3563 204.397V50.7874C54.6276 49.6057 58.6648 51.2797 59.6494 52.2644L134.977 134.977C135.469 157.132 136.159 202.624 134.977 207.351C133.795 212.077 128.577 209.32 126.115 207.351L95.0977 134.977H89.1897L61.1264 204.397C56.4 211.486 49.3103 207.351 46.3563 204.397Z" fill="#CC3363" stroke="#CC3363"/>
<path d="M224.25 63.7362L224.25 217.345C215.979 218.527 211.942 216.853 210.957 215.868L135.629 133.156C135.137 111.001 134.448 65.5086 135.629 60.7821C136.811 56.0557 142.03 58.8128 144.491 60.7821L175.509 133.156L181.417 133.156L209.48 63.7362C214.206 56.6465 221.296 60.7822 224.25 63.7362Z" fill="#CC3363" stroke="#CC3363"/>
</svg>
