<svg width="354" height="356" viewBox="0 0 354 356" fill="none" xmlns="http://www.w3.org/2000/svg">
<g id="Frame 1">
<rect width="354" height="356" fill="white"/>
<g id="Group 1">
<path id="Rectangle 2" d="M17 11H337C340.866 11 344 14.134 344 18V338C344 341.866 340.866 345 337 345H17C13.134 345 10 341.866 10 338V18C10 14.134 13.134 11 17 11Z" fill="#DAF1FC" stroke="black" stroke-width="20"/>
<path id="Vector 1" d="M56.9655 275.655V64.069C68.3586 62.4414 73.9196 64.7471 75.2759 66.1035L179.034 180.035C179.713 210.552 180.662 273.214 179.034 279.724C177.407 286.234 170.218 282.437 166.828 279.724L124.103 180.035H115.966L77.3104 275.655C70.8 285.421 61.0345 279.724 56.9655 275.655Z" fill="#CC3363" stroke="#CC3363"/>
<path id="Vector 2" d="M302.002 81.9051L302.002 293.491C290.609 295.119 285.048 292.813 283.692 291.457L179.933 177.526C179.255 147.009 178.306 84.3465 179.933 77.8361C181.561 71.3258 188.749 75.1235 192.14 77.8361L234.864 177.526L243.002 177.526L281.657 81.9051C288.168 72.1396 297.933 77.8361 302.002 81.9051Z" fill="#CC3363" stroke="#CC3363"/>
</g>
</g>
</svg>
