<?xml version="1.0" encoding="iso-8859-1"?>
<!-- Generator: Adobe Illustrator 19.0.0, SVG Export Plug-In . SVG Version: 6.00 Build 0)  -->
<svg version="1.1" id="Layer_1" xmlns="http://www.w3.org/2000/svg" xmlns:xlink="http://www.w3.org/1999/xlink" x="0px" y="0px"
	 viewBox="0 0 512 512" style="enable-background:new 0 0 512 512;" xml:space="preserve">
<g>
	<path style="fill:#C7CFE2;" d="M437.141,170.704v15.933c0,14.124,11.486,25.732,25.668,25.877h0.21
		c14.269,0,25.877-11.608,25.877-25.877v-15.933H437.141z"/>
	<path style="fill:#C7CFE2;" d="M344.722,212.514c14.269,0,25.877-11.608,25.877-25.877v-15.933h-51.754v15.933
		C318.845,200.905,330.453,212.514,344.722,212.514z"/>
	<path style="fill:#C7CFE2;" d="M200.549,186.637c0,14.269,11.608,25.877,25.877,25.877c14.269,0,25.877-11.608,25.877-25.877
		v-15.933h-51.755V186.637z"/>
	<path style="fill:#C7CFE2;" d="M82.253,186.637c0,14.269,11.608,25.877,25.877,25.877s25.877-11.608,25.877-25.877v-15.933H82.253
		V186.637z"/>
</g>
<g>
	<polygon style="fill:#EFF2FA;" points="145.861,121.734 104.304,121.734 84.514,163.224 135.047,163.224 	"/>
	<polygon style="fill:#EFF2FA;" points="252.71,121.734 204.231,121.734 201.145,163.224 252.71,163.224 	"/>
	<polygon style="fill:#EFF2FA;" points="370.116,163.224 359.318,121.734 316.003,121.734 319.089,163.224 	"/>
	<polygon style="fill:#EFF2FA;" points="436.494,163.224 486.013,163.224 460.736,121.734 416.704,121.734 	"/>
</g>
<g>
	<path style="fill:#D2555A;" d="M74.859,186.637v-15.933H23.105v15.933c0,14.269,11.608,25.877,25.877,25.877h0.156h0.021
		C63.33,212.417,74.859,200.808,74.859,186.637z"/>
	<path style="fill:#D2555A;" d="M167.278,212.514c14.269,0,25.877-11.608,25.877-25.877v-15.933h-51.755v15.933
		C141.401,200.905,153.009,212.514,167.278,212.514z"/>
	<path style="fill:#D2555A;" d="M259.697,186.637c0,14.269,11.608,25.877,25.877,25.877c14.269,0,25.877-11.608,25.877-25.877
		v-15.933h-51.755V186.637z"/>
	<path style="fill:#D2555A;" d="M403.87,212.514c14.269,0,25.877-11.608,25.877-25.877v-15.933h-51.755v15.933
		C377.993,200.905,389.601,212.514,403.87,212.514z"/>
</g>
<g>
	<polygon style="fill:#FF6464;" points="428.298,163.224 408.509,121.734 366.951,121.734 377.766,163.224 	"/>
	<polygon style="fill:#FF6464;" points="308.583,121.734 260.103,121.734 260.103,163.224 311.668,163.224 	"/>
	<polygon style="fill:#FF6464;" points="196.81,121.734 153.495,121.734 142.697,163.224 193.725,163.224 	"/>
	<polygon style="fill:#FF6464;" points="96.108,121.734 51.243,121.734 49.447,124.715 25.987,163.224 76.319,163.224 	"/>
</g>
<rect x="92.209" y="269.703" style="fill:#A0D2F0;" width="169.644" height="150.285"/>
<path style="fill:#8F96AC;" d="M308.063,488.587h111.827V269.703H308.063V488.587z M332.358,371.776
	c0.675-0.675,1.649-1.078,2.605-1.078c0.964,0,1.943,0.404,2.617,1.078c0.675,0.675,1.079,1.655,1.079,2.619
	c0,0.96-0.398,1.928-1.078,2.605c-0.684,0.684-1.662,1.092-2.619,1.092c-0.953,0-1.921-0.403-2.62-1.107
	c-0.674-0.669-1.077-1.638-1.077-2.59C331.266,373.438,331.674,372.46,332.358,371.776z"/>
<path style="fill:#FFD782;" d="M459.112,53.011h-31.7l-1.192,4.623c-3.79,14.704-17.036,24.975-32.209,24.975H118.506
	c-15.189,0-28.438-10.268-32.22-24.973l-1.19-4.626H52.888v61.329h406.224L459.112,53.011L459.112,53.011z"/>
<path style="fill:#FFAF5F;" d="M118.506,75.217h275.507c14.269,0,25.877-11.608,25.877-25.877c0-14.295-11.608-25.927-25.877-25.927
	H118.506c-14.269,0-25.877,11.608-25.877,25.877C92.628,63.585,104.236,75.217,118.506,75.217z"/>
<path style="fill:#FFD782;" d="M438.059,208.616l-4.62-5.222l-4.614,5.227c-6.331,7.172-15.427,11.286-24.954,11.286
	c-9.528,0-18.624-4.113-24.956-11.286l-4.618-5.232l-4.62,5.232c-6.331,7.172-15.427,11.286-24.954,11.286
	c-9.528,0-18.624-4.113-24.956-11.286l-4.618-5.232l-4.62,5.232c-6.331,7.172-15.427,11.286-24.954,11.286
	s-18.624-4.113-24.956-11.286l-4.618-5.232l-4.62,5.232c-6.331,7.172-15.427,11.286-24.954,11.286
	c-9.528,0-18.624-4.113-24.956-11.286l-4.618-5.232l-4.62,5.232c-6.331,7.172-15.427,11.286-24.954,11.286
	c-9.528,0-18.624-4.113-24.956-11.286l-4.618-5.232l-4.62,5.232c-6.331,7.172-15.427,11.286-24.954,11.286
	s-18.624-4.113-24.956-11.286l-4.614-5.227l-4.62,5.222c-4.411,4.986-10.104,8.509-16.465,10.188l-4.589,1.211v268.571h247.781
	V266.006c0-2.038,1.659-3.697,3.697-3.697h119.22c2.038,0,3.697,1.659,3.697,3.697v222.581h31.829v-268.57l-4.589-1.211
	C448.163,217.126,442.47,213.603,438.059,208.616z M269.247,423.685c0,2.038-1.659,3.697-3.697,3.697H88.513
	c-2.038,0-3.697-1.659-3.697-3.697V266.006c0-2.038,1.659-3.697,3.697-3.697H265.55c2.038,0,3.697,1.659,3.697,3.697V423.685z"/>
<path d="M502.142,482.426h-29.475V224.873c17.104-4.313,29.784-19.827,29.784-38.237v-19.038c0.012-0.222,0.025-0.444,0.025-0.678
	c0-2.119-0.665-4.079-1.799-5.681l-28.009-45.988V49.315c0-5.447-4.411-9.858-9.858-9.858h-30.609
	c-4.374-17.005-19.827-29.599-38.187-29.599H118.506c-18.348,0-33.788,12.581-38.175,29.599H49.191
	c-5.447,0-9.858,4.411-9.858,9.858v65.938l-28.342,46.53c-0.789,1.306-1.257,2.736-1.392,4.214c-0.037,0.333-0.049,0.665-0.049,1.01
	v19.63c0,18.41,12.68,33.924,29.783,38.237v257.553H9.858c-5.447,0-9.858,4.411-9.858,9.858c0,5.434,4.411,9.858,9.858,9.858h39.333
	h255.174h119.22h39.223h39.333c5.447,0,9.858-4.424,9.858-9.858C512,486.837,507.589,482.426,502.142,482.426z M482.734,186.637
	c0,10.868-8.848,19.716-19.716,19.716c-0.074,0-0.136,0-0.21,0c-10.77-0.111-19.507-8.921-19.507-19.716v-9.772h39.432V186.637z
	 M108.192,127.895h29.697l-7.603,29.167H94.279L108.192,127.895z M190.173,127.895l-2.169,29.167h-37.337l7.591-29.167H190.173z
	 M404.622,127.895l13.912,29.167h-36.006l-7.603-29.167H404.622z M354.555,127.895l7.591,29.167h-37.337l-2.169-29.167H354.555z
	 M302.862,127.895l2.169,29.167h-38.767v-29.167H302.862z M246.549,157.063h-38.767l2.169-29.167h36.598L246.549,157.063
	L246.549,157.063z M88.414,176.865h39.432v9.772c0,10.868-8.848,19.716-19.716,19.716s-19.716-8.848-19.716-19.716V176.865z
	 M147.562,176.865h39.432v9.772c0,10.868-8.848,19.716-19.716,19.716s-19.716-8.848-19.716-19.716V176.865z M206.71,176.865h39.432
	v9.772c0,10.868-8.848,19.716-19.716,19.716s-19.716-8.848-19.716-19.716V176.865z M265.858,176.865h39.432v9.772
	c0,10.868-8.848,19.716-19.716,19.716c-10.868,0-19.716-8.848-19.716-19.716V176.865z M325.006,176.865h39.432v9.772
	c0,10.868-8.848,19.716-19.716,19.716c-10.868,0-19.716-8.848-19.716-19.716V176.865z M384.154,176.865h39.432v9.772
	c0,10.868-8.848,19.716-19.716,19.716c-10.868,0-19.716-8.848-19.716-19.716V176.865z M475.045,157.063h-34.663l-13.912-29.167
	h30.806L475.045,157.063z M118.506,29.574h275.507c10.868,0,19.716,8.835,19.716,19.765c0,10.868-8.848,19.716-19.716,19.716
	H118.506c-10.881,0-19.716-8.848-19.716-19.765C98.79,38.409,107.625,29.574,118.506,29.574z M59.049,59.173h21.269
	c4.374,17.005,19.827,29.599,38.187,29.599h275.507c18.348,0,33.788-12.581,38.175-29.599h20.763v49.007h-42.106h-48.662h-49.894
	h-55.883h-55.895H150.63h-48.649H59.049V59.173z M54.613,128.08l0.111-0.185h31.62l-13.912,29.167H36.955L54.613,128.08z
	 M29.266,186.637v-9.772h39.432v9.772c0,10.819-8.774,19.642-19.58,19.716c-0.049,0-0.086,0-0.136,0
	C38.114,206.353,29.266,197.505,29.266,186.637z M314.224,482.426V275.864h99.504v206.562H314.224z M423.586,256.148h-119.22
	c-5.447,0-9.858,4.411-9.858,9.858v216.42H59.049V224.762c7.652-2.021,14.405-6.297,19.507-12.064
	c7.233,8.194,17.806,13.37,29.574,13.37s22.341-5.175,29.574-13.37c7.233,8.194,17.806,13.37,29.574,13.37
	s22.341-5.175,29.574-13.37c7.233,8.194,17.806,13.37,29.574,13.37c11.768,0,22.341-5.175,29.574-13.37
	c7.233,8.194,17.806,13.37,29.574,13.37c11.768,0,22.341-5.175,29.574-13.37c7.233,8.194,17.806,13.37,29.574,13.37
	c11.768,0,22.341-5.175,29.574-13.37c7.233,8.194,17.806,13.37,29.574,13.37s22.341-5.175,29.574-13.37
	c5.102,5.767,11.854,10.043,19.507,12.064v257.664h-19.507v-216.42C433.444,260.559,429.033,256.148,423.586,256.148z"/>
<path d="M334.963,364.537c-2.588,0-5.126,1.047-6.962,2.883c-1.836,1.836-2.896,4.374-2.896,6.975c0,2.588,1.06,5.139,2.896,6.962
	c1.824,1.836,4.374,2.896,6.962,2.896c2.6,0,5.139-1.06,6.975-2.896c1.836-1.824,2.883-4.374,2.883-6.962
	c0-2.6-1.047-5.138-2.883-6.975C340.101,365.584,337.563,364.537,334.963,364.537z"/>
<path d="M265.55,256.148H88.513c-5.434,0-9.858,4.411-9.858,9.858v157.679c0,5.447,4.424,9.858,9.858,9.858H265.55
	c5.447,0,9.858-4.411,9.858-9.858V266.006C275.408,260.559,270.996,256.148,265.55,256.148z M255.692,413.827H98.371V275.864
	h157.321V413.827z"/>
<g>
</g>
<g>
</g>
<g>
</g>
<g>
</g>
<g>
</g>
<g>
</g>
<g>
</g>
<g>
</g>
<g>
</g>
<g>
</g>
<g>
</g>
<g>
</g>
<g>
</g>
<g>
</g>
<g>
</g>
</svg>
